# High-Fidelity OBJ Mesh Generated by UAV Design Suite
v 0.000000 0.200000 0.040000
v -0.076537 0.184776 0.040000
v -0.141421 0.141421 0.040000
v -0.184776 0.076537 0.040000
v -0.200000 0.000000 0.040000
v -0.184776 -0.076537 0.040000
v -0.141421 -0.141421 0.040000
v -0.076537 -0.184776 0.040000
v -0.000000 -0.200000 0.040000
v 0.076537 -0.184776 0.040000
v 0.141421 -0.141421 0.040000
v 0.184776 -0.076537 0.040000
v 0.200000 -0.000000 0.040000
v 0.184776 0.076537 0.040000
v 0.141421 0.141421 0.040000
v 0.076537 0.184776 0.040000
v 0.000000 0.200000 0.043000
v -0.076537 0.184776 0.043000
v -0.141421 0.141421 0.043000
v -0.184776 0.076537 0.043000
v -0.200000 0.000000 0.043000
v -0.184776 -0.076537 0.043000
v -0.141421 -0.141421 0.043000
v -0.076537 -0.184776 0.043000
v -0.000000 -0.200000 0.043000
v 0.076537 -0.184776 0.043000
v 0.141421 -0.141421 0.043000
v 0.184776 -0.076537 0.043000
v 0.200000 -0.000000 0.043000
v 0.184776 0.076537 0.043000
v 0.141421 0.141421 0.043000
v 0.076537 0.184776 0.043000
v 0.000000 0.200000 -0.043000
v -0.076537 0.184776 -0.043000
v -0.141421 0.141421 -0.043000
v -0.184776 0.076537 -0.043000
v -0.200000 0.000000 -0.043000
v -0.184776 -0.076537 -0.043000
v -0.141421 -0.141421 -0.043000
v -0.076537 -0.184776 -0.043000
v -0.000000 -0.200000 -0.043000
v 0.076537 -0.184776 -0.043000
v 0.141421 -0.141421 -0.043000
v 0.184776 -0.076537 -0.043000
v 0.200000 -0.000000 -0.043000
v 0.184776 0.076537 -0.043000
v 0.141421 0.141421 -0.043000
v 0.076537 0.184776 -0.043000
v 0.000000 0.200000 -0.040000
v -0.076537 0.184776 -0.040000
v -0.141421 0.141421 -0.040000
v -0.184776 0.076537 -0.040000
v -0.200000 0.000000 -0.040000
v -0.184776 -0.076537 -0.040000
v -0.141421 -0.141421 -0.040000
v -0.076537 -0.184776 -0.040000
v -0.000000 -0.200000 -0.040000
v 0.076537 -0.184776 -0.040000
v 0.141421 -0.141421 -0.040000
v 0.184776 -0.076537 -0.040000
v 0.200000 -0.000000 -0.040000
v 0.184776 0.076537 -0.040000
v 0.141421 0.141421 -0.040000
v 0.076537 0.184776 -0.040000
v -0.080000 -0.080000 -0.010000
v 0.080000 -0.080000 -0.010000
v 0.080000 0.080000 -0.010000
v -0.080000 0.080000 -0.010000
v -0.080000 -0.080000 0.110000
v 0.080000 -0.080000 0.110000
v 0.080000 0.080000 0.110000
v -0.080000 0.080000 0.110000
v 0.000000 0.100000 -0.180000
v -0.050000 0.086603 -0.180000
v -0.086603 0.050000 -0.180000
v -0.100000 0.000000 -0.180000
v -0.086603 -0.050000 -0.180000
v -0.050000 -0.086603 -0.180000
v -0.000000 -0.100000 -0.180000
v 0.050000 -0.086603 -0.180000
v 0.086603 -0.050000 -0.180000
v 0.100000 -0.000000 -0.180000
v 0.086603 0.050000 -0.180000
v 0.050000 0.086603 -0.180000
v 0.000000 0.100000 -0.050000
v -0.050000 0.086603 -0.050000
v -0.086603 0.050000 -0.050000
v -0.100000 0.000000 -0.050000
v -0.086603 -0.050000 -0.050000
v -0.050000 -0.086603 -0.050000
v -0.000000 -0.100000 -0.050000
v 0.050000 -0.086603 -0.050000
v 0.086603 -0.050000 -0.050000
v 0.100000 -0.000000 -0.050000
v 0.086603 0.050000 -0.050000
v 0.050000 0.086603 -0.050000
v 0.000000 0.083000 0.043000
v -0.002598 0.081500 0.043000
v -0.002598 0.078500 0.043000
v -0.000000 0.077000 0.043000
v 0.002598 0.078500 0.043000
v 0.002598 0.081500 0.043000
v 0.000000 0.083000 0.160000
v -0.002598 0.081500 0.160000
v -0.002598 0.078500 0.160000
v -0.000000 0.077000 0.160000
v 0.002598 0.078500 0.160000
v 0.002598 0.081500 0.160000
v -0.150000 -0.100000 -0.255000
v 0.150000 -0.100000 -0.255000
v 0.150000 0.100000 -0.255000
v -0.150000 0.100000 -0.255000
v -0.150000 -0.100000 -0.105000
v 0.150000 -0.100000 -0.105000
v 0.150000 0.100000 -0.105000
v -0.150000 0.100000 -0.105000
v 0.120000 -0.035000 -0.130000
v 0.180000 -0.035000 -0.130000
v 0.180000 0.035000 -0.130000
v 0.120000 0.035000 -0.130000
v 0.120000 -0.035000 -0.090000
v 0.180000 -0.035000 -0.090000
v 0.180000 0.035000 -0.090000
v 0.120000 0.035000 -0.090000
v 0.180000 0.000000 -0.111000
v 0.180000 -0.008229 -0.113674
v 0.180000 -0.013315 -0.120674
v 0.180000 -0.013315 -0.129326
v 0.180000 -0.008229 -0.136326
v 0.180000 -0.000000 -0.139000
v 0.180000 0.008229 -0.136326
v 0.180000 0.013315 -0.129326
v 0.180000 0.013315 -0.120674
v 0.180000 0.008229 -0.113674
v 0.205000 0.000000 -0.111000
v 0.205000 -0.008229 -0.113674
v 0.205000 -0.013315 -0.120674
v 0.205000 -0.013315 -0.129326
v 0.205000 -0.008229 -0.136326
v 0.205000 -0.000000 -0.139000
v 0.205000 0.008229 -0.136326
v 0.205000 0.013315 -0.129326
v 0.205000 0.013315 -0.120674
v 0.205000 0.008229 -0.113674
v 0.000000 0.000000 0.015000
v 0.000000 -0.010607 0.010607
v 0.000000 -0.015000 0.000000
v 0.000000 -0.010607 -0.010607
v 0.000000 -0.000000 -0.015000
v 0.000000 0.010607 -0.010607
v 0.000000 0.015000 -0.000000
v 0.000000 0.010607 0.010607
v 1.120000 0.000000 0.015000
v 1.120000 -0.010607 0.010607
v 1.120000 -0.015000 0.000000
v 1.120000 -0.010607 -0.010607
v 1.120000 -0.000000 -0.015000
v 1.120000 0.010607 -0.010607
v 1.120000 0.015000 -0.000000
v 1.120000 0.010607 0.010607
v 1.120000 0.020000 0.015000
v 1.110000 0.017321 0.015000
v 1.102679 0.010000 0.015000
v 1.100000 0.000000 0.015000
v 1.102679 -0.010000 0.015000
v 1.110000 -0.017321 0.015000
v 1.120000 -0.020000 0.015000
v 1.130000 -0.017321 0.015000
v 1.137321 -0.010000 0.015000
v 1.140000 -0.000000 0.015000
v 1.137321 0.010000 0.015000
v 1.130000 0.017321 0.015000
v 1.120000 0.020000 0.030000
v 1.110000 0.017321 0.030000
v 1.102679 0.010000 0.030000
v 1.100000 0.000000 0.030000
v 1.102679 -0.010000 0.030000
v 1.110000 -0.017321 0.030000
v 1.120000 -0.020000 0.030000
v 1.130000 -0.017321 0.030000
v 1.137321 -0.010000 0.030000
v 1.140000 -0.000000 0.030000
v 1.137321 0.010000 0.030000
v 1.130000 0.017321 0.030000
v 1.120000 0.025000 0.030000
v 1.107500 0.021651 0.030000
v 1.098349 0.012500 0.030000
v 1.095000 0.000000 0.030000
v 1.098349 -0.012500 0.030000
v 1.107500 -0.021651 0.030000
v 1.120000 -0.025000 0.030000
v 1.132500 -0.021651 0.030000
v 1.141651 -0.012500 0.030000
v 1.145000 -0.000000 0.030000
v 1.141651 0.012500 0.030000
v 1.132500 0.021651 0.030000
v 1.120000 0.025000 0.065000
v 1.107500 0.021651 0.065000
v 1.098349 0.012500 0.065000
v 1.095000 0.000000 0.065000
v 1.098349 -0.012500 0.065000
v 1.107500 -0.021651 0.065000
v 1.120000 -0.025000 0.065000
v 1.132500 -0.021651 0.065000
v 1.141651 -0.012500 0.065000
v 1.145000 -0.000000 0.065000
v 1.141651 0.012500 0.065000
v 1.132500 0.021651 0.065000
v 1.120000 -0.508000 0.058000
v 1.111340 -0.508000 0.063000
v 1.111340 -0.508000 0.073000
v 1.120000 -0.508000 0.078000
v 1.128660 -0.508000 0.073000
v 1.128660 -0.508000 0.063000
v 1.120000 0.508000 0.058000
v 1.111340 0.508000 0.063000
v 1.111340 0.508000 0.073000
v 1.120000 0.508000 0.078000
v 1.128660 0.508000 0.073000
v 1.128660 0.508000 0.063000
v 0.000000 0.000000 -0.015000
v -0.009186 0.005303 -0.010607
v -0.012990 0.007500 -0.000000
v -0.009186 0.005303 0.010607
v -0.000000 0.000000 0.015000
v 0.009186 -0.005303 0.010607
v 0.012990 -0.007500 0.000000
v 0.009186 -0.005303 -0.010607
v 0.560000 0.969948 -0.015000
v 0.550814 0.975252 -0.010607
v 0.547010 0.977448 -0.000000
v 0.550814 0.975252 0.010607
v 0.560000 0.969948 0.015000
v 0.569186 0.964645 0.010607
v 0.572990 0.962448 0.000000
v 0.569186 0.964645 -0.010607
v 0.560000 0.989948 0.015000
v 0.550000 0.987269 0.015000
v 0.542679 0.979948 0.015000
v 0.540000 0.969948 0.015000
v 0.542679 0.959948 0.015000
v 0.550000 0.952628 0.015000
v 0.560000 0.949948 0.015000
v 0.570000 0.952628 0.015000
v 0.577321 0.959948 0.015000
v 0.580000 0.969948 0.015000
v 0.577321 0.979948 0.015000
v 0.570000 0.987269 0.015000
v 0.560000 0.989948 0.030000
v 0.550000 0.987269 0.030000
v 0.542679 0.979948 0.030000
v 0.540000 0.969948 0.030000
v 0.542679 0.959948 0.030000
v 0.550000 0.952628 0.030000
v 0.560000 0.949948 0.030000
v 0.570000 0.952628 0.030000
v 0.577321 0.959948 0.030000
v 0.580000 0.969948 0.030000
v 0.577321 0.979948 0.030000
v 0.570000 0.987269 0.030000
v 0.560000 0.994948 0.030000
v 0.547500 0.991599 0.030000
v 0.538349 0.982448 0.030000
v 0.535000 0.969948 0.030000
v 0.538349 0.957448 0.030000
v 0.547500 0.948298 0.030000
v 0.560000 0.944948 0.030000
v 0.572500 0.948298 0.030000
v 0.581651 0.957448 0.030000
v 0.585000 0.969948 0.030000
v 0.581651 0.982448 0.030000
v 0.572500 0.991599 0.030000
v 0.560000 0.994948 0.065000
v 0.547500 0.991599 0.065000
v 0.538349 0.982448 0.065000
v 0.535000 0.969948 0.065000
v 0.538349 0.957448 0.065000
v 0.547500 0.948298 0.065000
v 0.560000 0.944948 0.065000
v 0.572500 0.948298 0.065000
v 0.581651 0.957448 0.065000
v 0.585000 0.969948 0.065000
v 0.581651 0.982448 0.065000
v 0.572500 0.991599 0.065000
v 0.999941 0.715948 0.058000
v 0.995611 0.708448 0.063000
v 0.995611 0.708448 0.073000
v 0.999941 0.715948 0.078000
v 1.004271 0.723448 0.073000
v 1.004271 0.723448 0.063000
v 0.120059 1.223948 0.058000
v 0.115729 1.216448 0.063000
v 0.115729 1.216448 0.073000
v 0.120059 1.223948 0.078000
v 0.124389 1.231448 0.073000
v 0.124389 1.231448 0.063000
v 0.000000 0.000000 -0.015000
v -0.009186 -0.005303 -0.010607
v -0.012990 -0.007500 -0.000000
v -0.009186 -0.005303 0.010607
v -0.000000 -0.000000 0.015000
v 0.009186 0.005303 0.010607
v 0.012990 0.007500 0.000000
v 0.009186 0.005303 -0.010607
v -0.560000 0.969948 -0.015000
v -0.569186 0.964645 -0.010607
v -0.572990 0.962448 -0.000000
v -0.569186 0.964645 0.010607
v -0.560000 0.969948 0.015000
v -0.550814 0.975252 0.010607
v -0.547010 0.977448 0.000000
v -0.550814 0.975252 -0.010607
v -0.560000 0.989948 0.015000
v -0.570000 0.987269 0.015000
v -0.577321 0.979948 0.015000
v -0.580000 0.969948 0.015000
v -0.577321 0.959948 0.015000
v -0.570000 0.952628 0.015000
v -0.560000 0.949948 0.015000
v -0.550000 0.952628 0.015000
v -0.542679 0.959948 0.015000
v -0.540000 0.969948 0.015000
v -0.542679 0.979948 0.015000
v -0.550000 0.987269 0.015000
v -0.560000 0.989948 0.030000
v -0.570000 0.987269 0.030000
v -0.577321 0.979948 0.030000
v -0.580000 0.969948 0.030000
v -0.577321 0.959948 0.030000
v -0.570000 0.952628 0.030000
v -0.560000 0.949948 0.030000
v -0.550000 0.952628 0.030000
v -0.542679 0.959948 0.030000
v -0.540000 0.969948 0.030000
v -0.542679 0.979948 0.030000
v -0.550000 0.987269 0.030000
v -0.560000 0.994948 0.030000
v -0.572500 0.991599 0.030000
v -0.581651 0.982448 0.030000
v -0.585000 0.969948 0.030000
v -0.581651 0.957448 0.030000
v -0.572500 0.948298 0.030000
v -0.560000 0.944948 0.030000
v -0.547500 0.948298 0.030000
v -0.538349 0.957448 0.030000
v -0.535000 0.969948 0.030000
v -0.538349 0.982448 0.030000
v -0.547500 0.991599 0.030000
v -0.560000 0.994948 0.065000
v -0.572500 0.991599 0.065000
v -0.581651 0.982448 0.065000
v -0.585000 0.969948 0.065000
v -0.581651 0.957448 0.065000
v -0.572500 0.948298 0.065000
v -0.560000 0.944948 0.065000
v -0.547500 0.948298 0.065000
v -0.538349 0.957448 0.065000
v -0.535000 0.969948 0.065000
v -0.538349 0.982448 0.065000
v -0.547500 0.991599 0.065000
v -0.120059 1.223948 0.078000
v -0.124389 1.231448 0.073000
v -0.124389 1.231448 0.063000
v -0.120059 1.223948 0.058000
v -0.115729 1.216448 0.063000
v -0.115729 1.216448 0.073000
v -0.999941 0.715948 0.078000
v -1.004271 0.723448 0.073000
v -1.004271 0.723448 0.063000
v -0.999941 0.715948 0.058000
v -0.995611 0.708448 0.063000
v -0.995611 0.708448 0.073000
v 0.000000 0.000000 -0.015000
v -0.000000 -0.010607 -0.010607
v -0.000000 -0.015000 -0.000000
v -0.000000 -0.010607 0.010607
v -0.000000 -0.000000 0.015000
v 0.000000 0.010607 0.010607
v 0.000000 0.015000 0.000000
v 0.000000 0.010607 -0.010607
v -1.120000 0.000000 -0.015000
v -1.120000 -0.010607 -0.010607
v -1.120000 -0.015000 -0.000000
v -1.120000 -0.010607 0.010607
v -1.120000 0.000000 0.015000
v -1.120000 0.010607 0.010607
v -1.120000 0.015000 0.000000
v -1.120000 0.010607 -0.010607
v -1.120000 0.020000 0.015000
v -1.130000 0.017321 0.015000
v -1.137321 0.010000 0.015000
v -1.140000 0.000000 0.015000
v -1.137321 -0.010000 0.015000
v -1.130000 -0.017321 0.015000
v -1.120000 -0.020000 0.015000
v -1.110000 -0.017321 0.015000
v -1.102679 -0.010000 0.015000
v -1.100000 0.000000 0.015000
v -1.102679 0.010000 0.015000
v -1.110000 0.017321 0.015000
v -1.120000 0.020000 0.030000
v -1.130000 0.017321 0.030000
v -1.137321 0.010000 0.030000
v -1.140000 0.000000 0.030000
v -1.137321 -0.010000 0.030000
v -1.130000 -0.017321 0.030000
v -1.120000 -0.020000 0.030000
v -1.110000 -0.017321 0.030000
v -1.102679 -0.010000 0.030000
v -1.100000 0.000000 0.030000
v -1.102679 0.010000 0.030000
v -1.110000 0.017321 0.030000
v -1.120000 0.025000 0.030000
v -1.132500 0.021651 0.030000
v -1.141651 0.012500 0.030000
v -1.145000 0.000000 0.030000
v -1.141651 -0.012500 0.030000
v -1.132500 -0.021651 0.030000
v -1.120000 -0.025000 0.030000
v -1.107500 -0.021651 0.030000
v -1.098349 -0.012500 0.030000
v -1.095000 0.000000 0.030000
v -1.098349 0.012500 0.030000
v -1.107500 0.021651 0.030000
v -1.120000 0.025000 0.065000
v -1.132500 0.021651 0.065000
v -1.141651 0.012500 0.065000
v -1.145000 0.000000 0.065000
v -1.141651 -0.012500 0.065000
v -1.132500 -0.021651 0.065000
v -1.120000 -0.025000 0.065000
v -1.107500 -0.021651 0.065000
v -1.098349 -0.012500 0.065000
v -1.095000 0.000000 0.065000
v -1.098349 0.012500 0.065000
v -1.107500 0.021651 0.065000
v -1.120000 0.508000 0.078000
v -1.128660 0.508000 0.073000
v -1.128660 0.508000 0.063000
v -1.120000 0.508000 0.058000
v -1.111340 0.508000 0.063000
v -1.111340 0.508000 0.073000
v -1.120000 -0.508000 0.078000
v -1.128660 -0.508000 0.073000
v -1.128660 -0.508000 0.063000
v -1.120000 -0.508000 0.058000
v -1.111340 -0.508000 0.063000
v -1.111340 -0.508000 0.073000
v 0.000000 0.000000 0.015000
v -0.009186 0.005303 0.010607
v -0.012990 0.007500 0.000000
v -0.009186 0.005303 -0.010607
v -0.000000 0.000000 -0.015000
v 0.009186 -0.005303 -0.010607
v 0.012990 -0.007500 -0.000000
v 0.009186 -0.005303 0.010607
v -0.560000 -0.969948 0.015000
v -0.569186 -0.964645 0.010607
v -0.572990 -0.962448 0.000000
v -0.569186 -0.964645 -0.010607
v -0.560000 -0.969948 -0.015000
v -0.550814 -0.975252 -0.010607
v -0.547010 -0.977448 -0.000000
v -0.550814 -0.975252 0.010607
v -0.560000 -0.949948 0.015000
v -0.570000 -0.952628 0.015000
v -0.577321 -0.959948 0.015000
v -0.580000 -0.969948 0.015000
v -0.577321 -0.979948 0.015000
v -0.570000 -0.987269 0.015000
v -0.560000 -0.989948 0.015000
v -0.550000 -0.987269 0.015000
v -0.542679 -0.979948 0.015000
v -0.540000 -0.969948 0.015000
v -0.542679 -0.959948 0.015000
v -0.550000 -0.952628 0.015000
v -0.560000 -0.949948 0.030000
v -0.570000 -0.952628 0.030000
v -0.577321 -0.959948 0.030000
v -0.580000 -0.969948 0.030000
v -0.577321 -0.979948 0.030000
v -0.570000 -0.987269 0.030000
v -0.560000 -0.989948 0.030000
v -0.550000 -0.987269 0.030000
v -0.542679 -0.979948 0.030000
v -0.540000 -0.969948 0.030000
v -0.542679 -0.959948 0.030000
v -0.550000 -0.952628 0.030000
v -0.560000 -0.944948 0.030000
v -0.572500 -0.948298 0.030000
v -0.581651 -0.957448 0.030000
v -0.585000 -0.969948 0.030000
v -0.581651 -0.982448 0.030000
v -0.572500 -0.991599 0.030000
v -0.560000 -0.994948 0.030000
v -0.547500 -0.991599 0.030000
v -0.538349 -0.982448 0.030000
v -0.535000 -0.969948 0.030000
v -0.538349 -0.957448 0.030000
v -0.547500 -0.948298 0.030000
v -0.560000 -0.944948 0.065000
v -0.572500 -0.948298 0.065000
v -0.581651 -0.957448 0.065000
v -0.585000 -0.969948 0.065000
v -0.581651 -0.982448 0.065000
v -0.572500 -0.991599 0.065000
v -0.560000 -0.994948 0.065000
v -0.547500 -0.991599 0.065000
v -0.538349 -0.982448 0.065000
v -0.535000 -0.969948 0.065000
v -0.538349 -0.957448 0.065000
v -0.547500 -0.948298 0.065000
v -0.999941 -0.715948 0.078000
v -1.004271 -0.723448 0.073000
v -1.004271 -0.723448 0.063000
v -0.999941 -0.715948 0.058000
v -0.995611 -0.708448 0.063000
v -0.995611 -0.708448 0.073000
v -0.120059 -1.223948 0.078000
v -0.124389 -1.231448 0.073000
v -0.124389 -1.231448 0.063000
v -0.120059 -1.223948 0.058000
v -0.115729 -1.216448 0.063000
v -0.115729 -1.216448 0.073000
v 0.000000 0.000000 0.015000
v -0.009186 -0.005303 0.010607
v -0.012990 -0.007500 0.000000
v -0.009186 -0.005303 -0.010607
v -0.000000 -0.000000 -0.015000
v 0.009186 0.005303 -0.010607
v 0.012990 0.007500 -0.000000
v 0.009186 0.005303 0.010607
v 0.560000 -0.969948 0.015000
v 0.550814 -0.975252 0.010607
v 0.547010 -0.977448 0.000000
v 0.550814 -0.975252 -0.010607
v 0.560000 -0.969948 -0.015000
v 0.569186 -0.964645 -0.010607
v 0.572990 -0.962448 -0.000000
v 0.569186 -0.964645 0.010607
v 0.560000 -0.949948 0.015000
v 0.550000 -0.952628 0.015000
v 0.542679 -0.959948 0.015000
v 0.540000 -0.969948 0.015000
v 0.542679 -0.979948 0.015000
v 0.550000 -0.987269 0.015000
v 0.560000 -0.989948 0.015000
v 0.570000 -0.987269 0.015000
v 0.577321 -0.979948 0.015000
v 0.580000 -0.969948 0.015000
v 0.577321 -0.959948 0.015000
v 0.570000 -0.952628 0.015000
v 0.560000 -0.949948 0.030000
v 0.550000 -0.952628 0.030000
v 0.542679 -0.959948 0.030000
v 0.540000 -0.969948 0.030000
v 0.542679 -0.979948 0.030000
v 0.550000 -0.987269 0.030000
v 0.560000 -0.989948 0.030000
v 0.570000 -0.987269 0.030000
v 0.577321 -0.979948 0.030000
v 0.580000 -0.969948 0.030000
v 0.577321 -0.959948 0.030000
v 0.570000 -0.952628 0.030000
v 0.560000 -0.944948 0.030000
v 0.547500 -0.948298 0.030000
v 0.538349 -0.957448 0.030000
v 0.535000 -0.969948 0.030000
v 0.538349 -0.982448 0.030000
v 0.547500 -0.991599 0.030000
v 0.560000 -0.994948 0.030000
v 0.572500 -0.991599 0.030000
v 0.581651 -0.982448 0.030000
v 0.585000 -0.969948 0.030000
v 0.581651 -0.957448 0.030000
v 0.572500 -0.948298 0.030000
v 0.560000 -0.944948 0.065000
v 0.547500 -0.948298 0.065000
v 0.538349 -0.957448 0.065000
v 0.535000 -0.969948 0.065000
v 0.538349 -0.982448 0.065000
v 0.547500 -0.991599 0.065000
v 0.560000 -0.994948 0.065000
v 0.572500 -0.991599 0.065000
v 0.581651 -0.982448 0.065000
v 0.585000 -0.969948 0.065000
v 0.581651 -0.957448 0.065000
v 0.572500 -0.948298 0.065000
v 0.120059 -1.223948 0.058000
v 0.115729 -1.216448 0.063000
v 0.115729 -1.216448 0.073000
v 0.120059 -1.223948 0.078000
v 0.124389 -1.231448 0.073000
v 0.124389 -1.231448 0.063000
v 0.999941 -0.715948 0.058000
v 0.995611 -0.708448 0.063000
v 0.995611 -0.708448 0.073000
v 0.999941 -0.715948 0.078000
v 1.004271 -0.723448 0.073000
v 1.004271 -0.723448 0.063000
v -0.200000 0.190000 -0.045000
v -0.207071 0.192929 -0.045000
v -0.210000 0.200000 -0.045000
v -0.207071 0.207071 -0.045000
v -0.200000 0.210000 -0.045000
v -0.192929 0.207071 -0.045000
v -0.190000 0.200000 -0.045000
v -0.192929 0.192929 -0.045000
v -0.200000 0.190000 -0.450000
v -0.207071 0.192929 -0.450000
v -0.210000 0.200000 -0.450000
v -0.207071 0.207071 -0.450000
v -0.200000 0.210000 -0.450000
v -0.192929 0.207071 -0.450000
v -0.190000 0.200000 -0.450000
v -0.192929 0.192929 -0.450000
v 0.200000 0.190000 -0.045000
v 0.192929 0.192929 -0.045000
v 0.190000 0.200000 -0.045000
v 0.192929 0.207071 -0.045000
v 0.200000 0.210000 -0.045000
v 0.207071 0.207071 -0.045000
v 0.210000 0.200000 -0.045000
v 0.207071 0.192929 -0.045000
v 0.200000 0.190000 -0.450000
v 0.192929 0.192929 -0.450000
v 0.190000 0.200000 -0.450000
v 0.192929 0.207071 -0.450000
v 0.200000 0.210000 -0.450000
v 0.207071 0.207071 -0.450000
v 0.210000 0.200000 -0.450000
v 0.207071 0.192929 -0.450000
v -0.200000 -0.210000 -0.045000
v -0.207071 -0.207071 -0.045000
v -0.210000 -0.200000 -0.045000
v -0.207071 -0.192929 -0.045000
v -0.200000 -0.190000 -0.045000
v -0.192929 -0.192929 -0.045000
v -0.190000 -0.200000 -0.045000
v -0.192929 -0.207071 -0.045000
v -0.200000 -0.210000 -0.450000
v -0.207071 -0.207071 -0.450000
v -0.210000 -0.200000 -0.450000
v -0.207071 -0.192929 -0.450000
v -0.200000 -0.190000 -0.450000
v -0.192929 -0.192929 -0.450000
v -0.190000 -0.200000 -0.450000
v -0.192929 -0.207071 -0.450000
v 0.200000 -0.210000 -0.045000
v 0.192929 -0.207071 -0.045000
v 0.190000 -0.200000 -0.045000
v 0.192929 -0.192929 -0.045000
v 0.200000 -0.190000 -0.045000
v 0.207071 -0.192929 -0.045000
v 0.210000 -0.200000 -0.045000
v 0.207071 -0.207071 -0.045000
v 0.200000 -0.210000 -0.450000
v 0.192929 -0.207071 -0.450000
v 0.190000 -0.200000 -0.450000
v 0.192929 -0.192929 -0.450000
v 0.200000 -0.190000 -0.450000
v 0.207071 -0.192929 -0.450000
v 0.210000 -0.200000 -0.450000
v 0.207071 -0.207071 -0.450000
v -0.270000 0.180000 -0.461000
v -0.130000 0.180000 -0.461000
v -0.130000 0.220000 -0.461000
v -0.270000 0.220000 -0.461000
v -0.270000 0.180000 -0.449000
v -0.130000 0.180000 -0.449000
v -0.130000 0.220000 -0.449000
v -0.270000 0.220000 -0.449000
v 0.130000 0.180000 -0.461000
v 0.270000 0.180000 -0.461000
v 0.270000 0.220000 -0.461000
v 0.130000 0.220000 -0.461000
v 0.130000 0.180000 -0.449000
v 0.270000 0.180000 -0.449000
v 0.270000 0.220000 -0.449000
v 0.130000 0.220000 -0.449000
v -0.270000 -0.220000 -0.461000
v -0.130000 -0.220000 -0.461000
v -0.130000 -0.180000 -0.461000
v -0.270000 -0.180000 -0.461000
v -0.270000 -0.220000 -0.449000
v -0.130000 -0.220000 -0.449000
v -0.130000 -0.180000 -0.449000
v -0.270000 -0.180000 -0.449000
v 0.130000 -0.220000 -0.461000
v 0.270000 -0.220000 -0.461000
v 0.270000 -0.180000 -0.461000
v 0.130000 -0.180000 -0.461000
v 0.130000 -0.220000 -0.449000
v 0.270000 -0.220000 -0.449000
v 0.270000 -0.180000 -0.449000
v 0.130000 -0.180000 -0.449000
f 1 2 18 17
f 2 3 19 18
f 3 4 20 19
f 4 5 21 20
f 5 6 22 21
f 6 7 23 22
f 7 8 24 23
f 8 9 25 24
f 9 10 26 25
f 10 11 27 26
f 11 12 28 27
f 12 13 29 28
f 13 14 30 29
f 14 15 31 30
f 15 16 32 31
f 16 1 17 32
f 33 34 50 49
f 34 35 51 50
f 35 36 52 51
f 36 37 53 52
f 37 38 54 53
f 38 39 55 54
f 39 40 56 55
f 40 41 57 56
f 41 42 58 57
f 42 43 59 58
f 43 44 60 59
f 44 45 61 60
f 45 46 62 61
f 46 47 63 62
f 47 48 64 63
f 48 33 49 64
f 65 66 67 68
f 69 70 71 72
f 65 66 70 69
f 67 68 72 71
f 65 68 72 69
f 66 67 71 70
f 73 74 86 85
f 74 75 87 86
f 75 76 88 87
f 76 77 89 88
f 77 78 90 89
f 78 79 91 90
f 79 80 92 91
f 80 81 93 92
f 81 82 94 93
f 82 83 95 94
f 83 84 96 95
f 84 73 85 96
f 97 98 104 103
f 98 99 105 104
f 99 100 106 105
f 100 101 107 106
f 101 102 108 107
f 102 97 103 108
f 109 110 111 112
f 113 114 115 116
f 109 110 114 113
f 111 112 116 115
f 109 112 116 113
f 110 111 115 114
f 117 118 119 120
f 121 122 123 124
f 117 118 122 121
f 119 120 124 123
f 117 120 124 121
f 118 119 123 122
f 125 126 136 135
f 126 127 137 136
f 127 128 138 137
f 128 129 139 138
f 129 130 140 139
f 130 131 141 140
f 131 132 142 141
f 132 133 143 142
f 133 134 144 143
f 134 125 135 144
f 145 146 154 153
f 146 147 155 154
f 147 148 156 155
f 148 149 157 156
f 149 150 158 157
f 150 151 159 158
f 151 152 160 159
f 152 145 153 160
f 161 162 174 173
f 162 163 175 174
f 163 164 176 175
f 164 165 177 176
f 165 166 178 177
f 166 167 179 178
f 167 168 180 179
f 168 169 181 180
f 169 170 182 181
f 170 171 183 182
f 171 172 184 183
f 172 161 173 184
f 185 186 198 197
f 186 187 199 198
f 187 188 200 199
f 188 189 201 200
f 189 190 202 201
f 190 191 203 202
f 191 192 204 203
f 192 193 205 204
f 193 194 206 205
f 194 195 207 206
f 195 196 208 207
f 196 185 197 208
f 209 210 216 215
f 210 211 217 216
f 211 212 218 217
f 212 213 219 218
f 213 214 220 219
f 214 209 215 220
f 221 222 230 229
f 222 223 231 230
f 223 224 232 231
f 224 225 233 232
f 225 226 234 233
f 226 227 235 234
f 227 228 236 235
f 228 221 229 236
f 237 238 250 249
f 238 239 251 250
f 239 240 252 251
f 240 241 253 252
f 241 242 254 253
f 242 243 255 254
f 243 244 256 255
f 244 245 257 256
f 245 246 258 257
f 246 247 259 258
f 247 248 260 259
f 248 237 249 260
f 261 262 274 273
f 262 263 275 274
f 263 264 276 275
f 264 265 277 276
f 265 266 278 277
f 266 267 279 278
f 267 268 280 279
f 268 269 281 280
f 269 270 282 281
f 270 271 283 282
f 271 272 284 283
f 272 261 273 284
f 285 286 292 291
f 286 287 293 292
f 287 288 294 293
f 288 289 295 294
f 289 290 296 295
f 290 285 291 296
f 297 298 306 305
f 298 299 307 306
f 299 300 308 307
f 300 301 309 308
f 301 302 310 309
f 302 303 311 310
f 303 304 312 311
f 304 297 305 312
f 313 314 326 325
f 314 315 327 326
f 315 316 328 327
f 316 317 329 328
f 317 318 330 329
f 318 319 331 330
f 319 320 332 331
f 320 321 333 332
f 321 322 334 333
f 322 323 335 334
f 323 324 336 335
f 324 313 325 336
f 337 338 350 349
f 338 339 351 350
f 339 340 352 351
f 340 341 353 352
f 341 342 354 353
f 342 343 355 354
f 343 344 356 355
f 344 345 357 356
f 345 346 358 357
f 346 347 359 358
f 347 348 360 359
f 348 337 349 360
f 361 362 368 367
f 362 363 369 368
f 363 364 370 369
f 364 365 371 370
f 365 366 372 371
f 366 361 367 372
f 373 374 382 381
f 374 375 383 382
f 375 376 384 383
f 376 377 385 384
f 377 378 386 385
f 378 379 387 386
f 379 380 388 387
f 380 373 381 388
f 389 390 402 401
f 390 391 403 402
f 391 392 404 403
f 392 393 405 404
f 393 394 406 405
f 394 395 407 406
f 395 396 408 407
f 396 397 409 408
f 397 398 410 409
f 398 399 411 410
f 399 400 412 411
f 400 389 401 412
f 413 414 426 425
f 414 415 427 426
f 415 416 428 427
f 416 417 429 428
f 417 418 430 429
f 418 419 431 430
f 419 420 432 431
f 420 421 433 432
f 421 422 434 433
f 422 423 435 434
f 423 424 436 435
f 424 413 425 436
f 437 438 444 443
f 438 439 445 444
f 439 440 446 445
f 440 441 447 446
f 441 442 448 447
f 442 437 443 448
f 449 450 458 457
f 450 451 459 458
f 451 452 460 459
f 452 453 461 460
f 453 454 462 461
f 454 455 463 462
f 455 456 464 463
f 456 449 457 464
f 465 466 478 477
f 466 467 479 478
f 467 468 480 479
f 468 469 481 480
f 469 470 482 481
f 470 471 483 482
f 471 472 484 483
f 472 473 485 484
f 473 474 486 485
f 474 475 487 486
f 475 476 488 487
f 476 465 477 488
f 489 490 502 501
f 490 491 503 502
f 491 492 504 503
f 492 493 505 504
f 493 494 506 505
f 494 495 507 506
f 495 496 508 507
f 496 497 509 508
f 497 498 510 509
f 498 499 511 510
f 499 500 512 511
f 500 489 501 512
f 513 514 520 519
f 514 515 521 520
f 515 516 522 521
f 516 517 523 522
f 517 518 524 523
f 518 513 519 524
f 525 526 534 533
f 526 527 535 534
f 527 528 536 535
f 528 529 537 536
f 529 530 538 537
f 530 531 539 538
f 531 532 540 539
f 532 525 533 540
f 541 542 554 553
f 542 543 555 554
f 543 544 556 555
f 544 545 557 556
f 545 546 558 557
f 546 547 559 558
f 547 548 560 559
f 548 549 561 560
f 549 550 562 561
f 550 551 563 562
f 551 552 564 563
f 552 541 553 564
f 565 566 578 577
f 566 567 579 578
f 567 568 580 579
f 568 569 581 580
f 569 570 582 581
f 570 571 583 582
f 571 572 584 583
f 572 573 585 584
f 573 574 586 585
f 574 575 587 586
f 575 576 588 587
f 576 565 577 588
f 589 590 596 595
f 590 591 597 596
f 591 592 598 597
f 592 593 599 598
f 593 594 600 599
f 594 589 595 600
f 601 602 610 609
f 602 603 611 610
f 603 604 612 611
f 604 605 613 612
f 605 606 614 613
f 606 607 615 614
f 607 608 616 615
f 608 601 609 616
f 617 618 626 625
f 618 619 627 626
f 619 620 628 627
f 620 621 629 628
f 621 622 630 629
f 622 623 631 630
f 623 624 632 631
f 624 617 625 632
f 633 634 642 641
f 634 635 643 642
f 635 636 644 643
f 636 637 645 644
f 637 638 646 645
f 638 639 647 646
f 639 640 648 647
f 640 633 641 648
f 649 650 658 657
f 650 651 659 658
f 651 652 660 659
f 652 653 661 660
f 653 654 662 661
f 654 655 663 662
f 655 656 664 663
f 656 649 657 664
f 665 666 667 668
f 669 670 671 672
f 665 666 670 669
f 667 668 672 671
f 665 668 672 669
f 666 667 671 670
f 673 674 675 676
f 677 678 679 680
f 673 674 678 677
f 675 676 680 679
f 673 676 680 677
f 674 675 679 678
f 681 682 683 684
f 685 686 687 688
f 681 682 686 685
f 683 684 688 687
f 681 684 688 685
f 682 683 687 686
f 689 690 691 692
f 693 694 695 696
f 689 690 694 693
f 691 692 696 695
f 689 692 696 693
f 690 691 695 694
